<svg width="71" height="71" viewBox="0 0 71 71" fill="none" xmlns="http://www.w3.org/2000/svg">
<path d="M36.4248 70.8446C54.3325 70.8446 68.8496 56.3286 68.8496 38.4223C68.8496 20.5159 54.3325 6 36.4248 6C18.5171 6 4 20.5159 4 38.4223C4 56.3286 18.5171 70.8446 36.4248 70.8446Z" fill="#DFE8EF"/>
<path opacity="0.9" d="M32.4248 64.8446C50.3325 64.8446 64.8496 50.3286 64.8496 32.4223C64.8496 14.5159 50.3325 0 32.4248 0C14.5171 0 0 14.5159 0 32.4223C0 50.3286 14.5171 64.8446 32.4248 64.8446Z" fill="url(#paint0_linear_9338_57741)"/>
<path opacity="0.1" d="M49.2726 4.61197L52.3474 6.92561L54.864 9.02588L9.24582 55.0523L7.69733 53.1153L4.61818 49.2663L49.2726 4.61197Z" fill="white"/>
<path opacity="0.1" d="M58.5 13.083L60.8095 16.9318L62.5095 20.25L20.0091 62.3476L16.9298 60.8081L13.0807 58.4988L58.5 13.083Z" fill="white"/>
<path d="M32.3268 60.0384C47.6325 60.0384 60.0403 47.6316 60.0403 32.3271C60.0403 17.0225 47.6325 4.61572 32.3268 4.61572C17.021 4.61572 4.61328 17.0225 4.61328 32.3271C4.61328 47.6316 17.021 60.0384 32.3268 60.0384Z" fill="url(#paint1_linear_9338_57741)"/>
<g filter="url(#filter0_d_9338_57741)">
<path d="M42.0822 20.998H37.7014C38.3846 22.1082 38.8267 23.4109 39.0277 24.906H43.087L42.0822 28.9473H39.0478C38.753 31.3898 37.8688 33.2624 36.3951 34.565C34.9215 35.8529 32.8382 36.6227 30.1454 36.8743L39.51 48.9758V49.2645H33.7425L23.5138 36.0971L23.4937 32.6998H28.5779C30.0784 32.6998 31.264 32.3594 32.1349 31.6784C33.0191 30.9827 33.6085 30.0723 33.9033 28.9473H23.0918L24.1167 24.906H33.8229C33.1664 22.6115 31.3913 21.4643 28.4975 21.4643H23.0918L24.177 16.9346H43.1071L42.0822 20.998Z" fill="white"/>
</g>
<defs>
<filter id="filter0_d_9338_57741" x="23.0918" y="16.9346" width="21.4458" height="33.7601" filterUnits="userSpaceOnUse" color-interpolation-filters="sRGB">
<feFlood flood-opacity="0" result="BackgroundImageFix"/>
<feColorMatrix in="SourceAlpha" type="matrix" values="0 0 0 0 0 0 0 0 0 0 0 0 0 0 0 0 0 0 127 0" result="hardAlpha"/>
<feOffset dx="0.71511" dy="0.71511"/>
<feGaussianBlur stdDeviation="0.357555"/>
<feComposite in2="hardAlpha" operator="out"/>
<feColorMatrix type="matrix" values="0 0 0 0 0 0 0 0 0 0 0 0 0 0 0 0 0 0 0.25 0"/>
<feBlend mode="normal" in2="BackgroundImageFix" result="effect1_dropShadow_9338_57741"/>
<feBlend mode="normal" in="SourceGraphic" in2="effect1_dropShadow_9338_57741" result="shape"/>
</filter>
<linearGradient id="paint0_linear_9338_57741" x1="11.2243" y1="8.39141" x2="64.4117" y2="68.3374" gradientUnits="userSpaceOnUse">
<stop offset="0.253079" stop-color="#006BCC"/>
<stop offset="1" stop-color="#008FE4"/>
</linearGradient>
<linearGradient id="paint1_linear_9338_57741" x1="8.68563" y1="10.0778" x2="50.8983" y2="52.2937" gradientUnits="userSpaceOnUse">
<stop stop-color="#006BCC"/>
<stop offset="1" stop-color="#008FE4"/>
</linearGradient>
</defs>
</svg>
