<svg width="82" height="83" viewBox="0 0 82 83" fill="none" xmlns="http://www.w3.org/2000/svg">
<path opacity="0.1" fill-rule="evenodd" clip-rule="evenodd" d="M31.0021 20.6687C32.9394 17.8057 33.908 16.3743 35.3646 15.8467C35.6209 15.7539 35.8846 15.6833 36.1529 15.6355C37.6782 15.3641 39.2328 16.1194 42.342 17.6302L44.0166 18.4438L45.6872 17.6321C48.7963 16.1214 50.3509 15.3661 51.8762 15.6375C52.1445 15.6852 52.4082 15.7559 52.6645 15.8487C54.1211 16.3763 55.0897 17.8077 57.027 20.6706L58.0685 22.2097L59.9324 22.3428C63.3804 22.5891 65.1044 22.7123 66.2897 23.71C66.4981 23.8855 66.6912 24.0785 66.8667 24.287C67.8644 25.4722 67.9875 27.1962 68.2338 30.6442L68.3665 32.5019L69.9122 33.5478C72.7751 35.4851 74.2066 36.4538 74.7341 37.9104C74.8269 38.1666 74.8976 38.4304 74.9454 38.6987C75.2168 40.2239 74.4614 41.7785 72.9507 44.8877L72.1331 46.5705L72.9447 48.2409C74.4554 51.3501 75.2108 52.9047 74.9394 54.43C74.8916 54.6983 74.8209 54.962 74.7281 55.2182C74.2006 56.6748 72.7691 57.6435 69.9062 59.5808L68.3664 60.6227L68.2338 62.4796C67.9875 65.9276 67.8644 67.6516 66.8667 68.8368C66.6912 69.0453 66.4981 69.2383 66.2897 69.4138C65.1044 70.4115 63.3804 70.5347 59.9324 70.781L58.0782 70.9134L57.033 72.458C55.0957 75.3209 54.1271 76.7523 52.6704 77.2799C52.4142 77.3727 52.1505 77.4434 51.8822 77.4911C50.3569 77.7625 48.8023 77.0072 45.6932 75.4965L45.6931 75.4965L44.0166 74.6819L42.336 75.4985C39.2268 77.0092 37.6722 77.7645 36.1469 77.4931C35.8786 77.4454 35.6149 77.3747 35.3587 77.2819C33.902 76.7543 32.9334 75.3229 30.9961 72.4599L29.9495 70.9133L28.0971 70.781C24.6491 70.5347 22.9251 70.4115 21.7399 69.4138C21.5314 69.2383 21.3383 69.0453 21.1628 68.8368C20.1651 67.6516 20.042 65.9276 19.7957 62.4796L19.6629 60.6209L18.1229 59.5788C15.26 57.6415 13.8285 56.6729 13.301 55.2162C13.2081 54.96 13.1375 54.6963 13.0897 54.428C12.8183 52.9027 13.5737 51.3481 15.0844 48.2389L15.8951 46.5705L15.0784 44.8897C13.5677 41.7805 12.8123 40.2259 13.0838 38.7006C13.1315 38.4323 13.2022 38.1686 13.295 37.9124C13.8225 36.4558 15.254 35.4871 18.1169 33.5498L19.6629 32.5037L19.7957 30.6442C20.042 27.1962 20.1651 25.4722 21.1628 24.287C21.3383 24.0785 21.5314 23.8855 21.7399 23.71C22.9251 22.7123 24.6491 22.5891 28.0971 22.3428L29.9592 22.2098L31.0021 20.6687Z" fill="#0059A3"/>
<g opacity="0.1" filter="url(#filter0_f_9022_60549)">
<mask id="path-2-inside-1_9022_60549" fill="white">
<path fill-rule="evenodd" clip-rule="evenodd" d="M27.6212 15.5959C29.5585 12.733 30.5271 11.3015 31.9838 10.774C32.24 10.6812 32.5037 10.6105 32.772 10.5628C34.2973 10.2913 35.8519 11.0467 38.9611 12.5574C40.0158 13.0699 41.2515 13.0719 42.3063 12.5594C45.4155 11.0487 46.9701 10.2933 48.4954 10.5647C48.7637 10.6125 49.0274 10.6831 49.2836 10.7759C50.7402 11.3035 51.7089 12.735 53.6462 15.5979C54.3037 16.5696 55.3813 17.1865 56.5516 17.2701C59.9996 17.5164 61.7236 17.6395 62.9088 18.6372C63.1173 18.8127 63.3103 19.0058 63.4858 19.2142C64.4835 20.3995 64.6067 22.1235 64.853 25.5715C64.9367 26.7443 65.5575 27.8161 66.5313 28.4751C69.3943 30.4124 70.8257 31.381 71.3533 32.8377C71.4461 33.0939 71.5167 33.3576 71.5645 33.6259C71.8359 35.1512 71.0806 36.7058 69.5699 39.815C69.0574 40.8696 69.0514 42.1135 69.5639 43.1681C71.0746 46.2773 71.8299 47.8319 71.5585 49.3572C71.5108 49.6255 71.4401 49.8892 71.3473 50.1454C70.8197 51.6021 69.3883 52.5707 66.5253 54.508C65.5532 55.1659 64.9366 56.236 64.853 57.4068C64.6067 60.8548 64.4835 62.5788 63.4858 63.764C63.3103 63.9725 63.1173 64.1656 62.9088 64.3411C61.7236 65.3388 59.9996 65.4619 56.5516 65.7082C55.3809 65.7918 54.3099 66.4132 53.6522 67.3852C51.7149 70.2481 50.7462 71.6796 49.2896 72.2072C49.0334 72.3 48.7696 72.3706 48.5014 72.4184C46.9761 72.6898 45.4215 71.9344 42.3123 70.4237C41.2537 69.9094 40.0136 69.9114 38.9551 70.4257C35.8459 71.9364 34.2913 72.6918 32.766 72.4203C32.4977 72.3726 32.234 72.3019 31.9778 72.2091C30.5212 71.6816 29.5525 70.2501 27.6152 67.3872C26.9581 66.4161 25.8858 65.7917 24.7162 65.7082C21.2682 65.4619 19.5442 65.3388 18.359 64.3411C18.1505 64.1656 17.9575 63.9725 17.782 63.764C16.7843 62.5788 16.6611 60.8548 16.4148 57.4068C16.3312 56.2358 15.7144 55.164 14.742 54.506C11.8791 52.5687 10.4477 51.6001 9.92009 50.1435C9.82729 49.8872 9.75663 49.6235 9.70888 49.3552C9.43746 47.8299 10.1928 46.2754 11.7035 43.1662C12.2154 42.1127 12.2094 40.8704 11.6975 39.8169C10.1868 36.7078 9.43147 35.1532 9.70289 33.6279C9.75064 33.3596 9.8213 33.0959 9.9141 32.8396C10.4417 31.383 11.8731 30.4144 14.736 28.4771C15.7109 27.8174 16.331 26.7455 16.4148 25.5715C16.6611 22.1235 16.7843 20.3995 17.782 19.2142C17.9575 19.0058 18.1505 18.8127 18.359 18.6372C19.5442 17.6395 21.2682 17.5164 24.7162 17.2701C25.8881 17.1864 26.9628 16.569 27.6212 15.5959Z"/>
</mask>
<path fill-rule="evenodd" clip-rule="evenodd" d="M27.6212 15.5959C29.5585 12.733 30.5271 11.3015 31.9838 10.774C32.24 10.6812 32.5037 10.6105 32.772 10.5628C34.2973 10.2913 35.8519 11.0467 38.9611 12.5574C40.0158 13.0699 41.2515 13.0719 42.3063 12.5594C45.4155 11.0487 46.9701 10.2933 48.4954 10.5647C48.7637 10.6125 49.0274 10.6831 49.2836 10.7759C50.7402 11.3035 51.7089 12.735 53.6462 15.5979C54.3037 16.5696 55.3813 17.1865 56.5516 17.2701C59.9996 17.5164 61.7236 17.6395 62.9088 18.6372C63.1173 18.8127 63.3103 19.0058 63.4858 19.2142C64.4835 20.3995 64.6067 22.1235 64.853 25.5715C64.9367 26.7443 65.5575 27.8161 66.5313 28.4751C69.3943 30.4124 70.8257 31.381 71.3533 32.8377C71.4461 33.0939 71.5167 33.3576 71.5645 33.6259C71.8359 35.1512 71.0806 36.7058 69.5699 39.815C69.0574 40.8696 69.0514 42.1135 69.5639 43.1681C71.0746 46.2773 71.8299 47.8319 71.5585 49.3572C71.5108 49.6255 71.4401 49.8892 71.3473 50.1454C70.8197 51.6021 69.3883 52.5707 66.5253 54.508C65.5532 55.1659 64.9366 56.236 64.853 57.4068C64.6067 60.8548 64.4835 62.5788 63.4858 63.764C63.3103 63.9725 63.1173 64.1656 62.9088 64.3411C61.7236 65.3388 59.9996 65.4619 56.5516 65.7082C55.3809 65.7918 54.3099 66.4132 53.6522 67.3852C51.7149 70.2481 50.7462 71.6796 49.2896 72.2072C49.0334 72.3 48.7696 72.3706 48.5014 72.4184C46.9761 72.6898 45.4215 71.9344 42.3123 70.4237C41.2537 69.9094 40.0136 69.9114 38.9551 70.4257C35.8459 71.9364 34.2913 72.6918 32.766 72.4203C32.4977 72.3726 32.234 72.3019 31.9778 72.2091C30.5212 71.6816 29.5525 70.2501 27.6152 67.3872C26.9581 66.4161 25.8858 65.7917 24.7162 65.7082C21.2682 65.4619 19.5442 65.3388 18.359 64.3411C18.1505 64.1656 17.9575 63.9725 17.782 63.764C16.7843 62.5788 16.6611 60.8548 16.4148 57.4068C16.3312 56.2358 15.7144 55.164 14.742 54.506C11.8791 52.5687 10.4477 51.6001 9.92009 50.1435C9.82729 49.8872 9.75663 49.6235 9.70888 49.3552C9.43746 47.8299 10.1928 46.2754 11.7035 43.1662C12.2154 42.1127 12.2094 40.8704 11.6975 39.8169C10.1868 36.7078 9.43147 35.1532 9.70289 33.6279C9.75064 33.3596 9.8213 33.0959 9.9141 32.8396C10.4417 31.383 11.8731 30.4144 14.736 28.4771C15.7109 27.8174 16.331 26.7455 16.4148 25.5715C16.6611 22.1235 16.7843 20.3995 17.782 19.2142C17.9575 19.0058 18.1505 18.8127 18.359 18.6372C19.5442 17.6395 21.2682 17.5164 24.7162 17.2701C25.8881 17.1864 26.9628 16.569 27.6212 15.5959Z" fill="#0059A3"/>
<path d="M31.9838 10.774L30.3603 6.29151H30.3603L31.9838 10.774ZM32.772 10.5628L33.6073 15.2564L33.6073 15.2564L32.772 10.5628ZM48.4954 10.5647L47.6601 15.2584L47.6601 15.2584L48.4954 10.5647ZM49.2836 10.7759L50.9071 6.29349L50.9071 6.29349L49.2836 10.7759ZM62.9088 18.6372L59.8386 22.2844L59.8386 22.2844L62.9088 18.6372ZM63.4858 19.2142L59.8386 22.2844L59.8386 22.2844L63.4858 19.2142ZM71.3533 32.8377L66.8708 34.4611L66.8708 34.4612L71.3533 32.8377ZM71.5645 33.6259L66.8708 34.4611V34.4611L71.5645 33.6259ZM71.5585 49.3572L76.2522 50.1925L76.2522 50.1924L71.5585 49.3572ZM71.3473 50.1454L75.8298 51.7689L75.8298 51.7689L71.3473 50.1454ZM63.4858 63.764L59.8386 60.6939L59.8386 60.6939L63.4858 63.764ZM62.9088 64.3411L59.8386 60.6939H59.8386L62.9088 64.3411ZM49.2896 72.2072L50.9131 76.6896L50.9131 76.6896L49.2896 72.2072ZM48.5014 72.4184L49.3366 77.112H49.3366L48.5014 72.4184ZM32.766 72.4203L31.9308 77.114H31.9308L32.766 72.4203ZM31.9778 72.2091L33.6013 67.7267L33.6013 67.7267L31.9778 72.2091ZM18.359 64.3411L15.2888 67.9883L15.2888 67.9883L18.359 64.3411ZM17.782 63.764L21.4292 60.6939L21.4292 60.6939L17.782 63.764ZM9.92009 50.1435L14.4025 48.52L14.4025 48.52L9.92009 50.1435ZM9.70888 49.3552L5.01522 50.1905L5.01522 50.1905L9.70888 49.3552ZM9.70289 33.6279L14.3966 34.4631L14.3966 34.4631L9.70289 33.6279ZM9.9141 32.8396L5.43165 31.2161L5.43165 31.2162L9.9141 32.8396ZM17.782 19.2142L21.4292 22.2844L21.4292 22.2844L17.782 19.2142ZM18.359 18.6372L21.4292 22.2844L21.4292 22.2844L18.359 18.6372ZM24.7162 17.2701L24.3765 12.5148H24.3765L24.7162 17.2701ZM16.4148 25.5715L21.1701 25.9111L16.4148 25.5715ZM11.7035 43.1662L7.41549 41.0827L7.41549 41.0827L11.7035 43.1662ZM11.6975 39.8169L15.9856 37.7335L15.9856 37.7335L11.6975 39.8169ZM16.4148 57.4068L11.6595 57.7465L16.4148 57.4068ZM14.742 54.506L12.0702 58.4544H12.0702L14.742 54.506ZM24.7162 65.7082L25.0559 60.9529H25.0559L24.7162 65.7082ZM38.9551 70.4257L36.8716 66.1377H36.8716L38.9551 70.4257ZM56.5516 65.7082L56.2119 60.9529H56.2119L56.5516 65.7082ZM53.6522 67.3852L57.6005 70.057V70.057L53.6522 67.3852ZM64.853 57.4068L60.0977 57.0672L64.853 57.4068ZM69.5699 39.815L65.2818 37.7315L65.2818 37.7315L69.5699 39.815ZM69.5639 43.1681L65.2758 45.2516L65.2758 45.2516L69.5639 43.1681ZM66.5313 28.4751L69.2031 24.5267H69.2031L66.5313 28.4751ZM56.5516 17.2701L56.8913 12.5148L56.5516 17.2701ZM38.9611 12.5574L36.8776 16.8454L38.9611 12.5574ZM42.3063 12.5594L44.3898 16.8474L44.3898 16.8474L42.3063 12.5594ZM30.3603 6.29151C28.5542 6.94566 27.303 8.1041 26.3548 9.21626C25.4761 10.247 24.5808 11.5824 23.6728 12.9241L31.5696 18.2677C32.5989 16.7465 33.1566 15.9347 33.6107 15.4021C33.9953 14.9509 33.9567 15.1298 33.6073 15.2564L30.3603 6.29151ZM31.9368 5.86909C31.4002 5.96458 30.8728 6.10591 30.3603 6.29151L33.6073 15.2564V15.2564L31.9368 5.86909ZM41.0446 8.26937C39.5874 7.56136 38.1444 6.85253 36.868 6.39925C35.4908 5.91017 33.828 5.53255 31.9368 5.86909L33.6073 15.2564C33.2413 15.3215 33.1185 15.1859 33.6772 15.3843C34.3367 15.6185 35.2256 16.0427 36.8776 16.8454L41.0446 8.26937ZM44.3898 16.8474C46.0418 16.0447 46.9307 15.6205 47.5902 15.3863C48.1489 15.1879 48.026 15.3235 47.6601 15.2584L49.3306 5.87108C47.4394 5.53453 45.7766 5.91215 44.3994 6.40124C43.123 6.85451 41.68 7.56334 40.2228 8.27135L44.3898 16.8474ZM47.6601 15.2584L47.6601 15.2584L50.9071 6.29349C50.3946 6.10789 49.8672 5.96657 49.3306 5.87107L47.6601 15.2584ZM47.6601 15.2584C47.3106 15.1318 47.272 14.9529 47.6567 15.4041C48.1108 15.9367 48.6684 16.7485 49.6978 18.2697L57.5945 12.9261C56.6866 11.5844 55.7913 10.249 54.9126 9.21824C53.9644 8.10608 52.7132 6.94764 50.9071 6.29349L47.6601 15.2584ZM65.979 14.99C64.5094 13.7529 62.8806 13.2486 61.4433 12.9835C60.1113 12.7379 58.5072 12.6302 56.8913 12.5148L56.2119 22.0254C58.044 22.1562 59.0259 22.2333 59.7141 22.3602C60.2972 22.4677 60.123 22.5238 59.8386 22.2844L65.979 14.99ZM67.1331 16.1441C66.7821 15.7271 66.3959 15.341 65.979 14.99L59.8386 22.2844L59.8386 22.2844L67.1331 16.1441ZM69.6082 25.2318C69.4928 23.6159 69.3852 22.0117 69.1395 20.6797C68.8745 19.2425 68.3701 17.6136 67.133 16.1441L59.8386 22.2844C59.5993 22.0001 59.6553 21.8258 59.7628 22.4089C59.8898 23.0972 59.9668 24.0791 60.0977 25.9111L69.6082 25.2318ZM75.8357 31.2142C75.1816 29.4081 74.0231 28.1568 72.911 27.2087C71.8803 26.3299 70.5449 25.4346 69.2031 24.5267L63.8595 32.4235C65.3807 33.4528 66.1925 34.0105 66.7251 34.4646C67.1763 34.8492 66.9974 34.8106 66.8708 34.4611L75.8357 31.2142ZM76.2582 32.7907C76.1627 32.2541 76.0213 31.7266 75.8357 31.2141L66.8708 34.4612L66.8708 34.4611L76.2582 32.7907ZM73.8579 41.8985C74.5659 40.4413 75.2747 38.9983 75.728 37.7219C76.2171 36.3447 76.5947 34.6819 76.2582 32.7906L66.8708 34.4611C66.8057 34.0952 66.9414 33.9723 66.743 34.531C66.5087 35.1906 66.0845 36.0794 65.2818 37.7315L73.8579 41.8985ZM65.2758 45.2516C66.0785 46.9037 66.5027 47.7925 66.737 48.4521C66.9354 49.0108 66.7997 48.8879 66.8648 48.522L76.2522 50.1924C76.5887 48.3012 76.2111 46.6384 75.722 45.2612C75.2687 43.9848 74.5599 42.5418 73.8519 41.0847L65.2758 45.2516ZM66.8648 48.5219L66.8648 48.522L75.8298 51.7689C76.0153 51.2565 76.1567 50.7291 76.2522 50.1925L66.8648 48.5219ZM66.8648 48.522C66.9914 48.1725 67.1703 48.1339 66.7191 48.5186C66.1865 48.9726 65.3747 49.5303 63.8535 50.5597L69.1971 58.4564C70.5389 57.5485 71.8743 56.6532 72.905 55.7744C74.0172 54.8263 75.1756 53.575 75.8298 51.7689L66.8648 48.522ZM67.133 66.8342C68.3701 65.3647 68.8745 63.7358 69.1395 62.2986C69.3852 60.9666 69.4928 59.3624 69.6082 57.7465L60.0977 57.0672C59.9668 58.8992 59.8898 59.8811 59.7628 60.5694C59.6553 61.1525 59.5993 60.9782 59.8386 60.6939L67.133 66.8342ZM65.979 67.9883C66.3959 67.6373 66.7821 67.2512 67.1331 66.8342L59.8386 60.6939L59.8386 60.6939L65.979 67.9883ZM56.8912 70.4635C58.5072 70.3481 60.1113 70.2404 61.4433 69.9948C62.8806 69.7297 64.5094 69.2253 65.979 67.9883L59.8386 60.6939C60.123 60.4545 60.2972 60.5105 59.7141 60.6181C59.0259 60.745 58.044 60.8221 56.2119 60.9529L56.8912 70.4635ZM50.9131 76.6896C52.7192 76.0355 53.9704 74.877 54.9186 73.7649C55.7973 72.7341 56.6926 71.3987 57.6005 70.057L49.7038 64.7134C48.6744 66.2346 48.1168 67.0464 47.6627 67.579C47.278 68.0302 47.3166 67.8513 47.6661 67.7247L50.9131 76.6896ZM49.3366 77.112C49.8732 77.0165 50.4006 76.8752 50.9131 76.6896L47.6661 67.7247L47.6661 67.7247L49.3366 77.112ZM40.2288 74.7118C41.6859 75.4198 43.129 76.1286 44.4054 76.5819C45.7826 77.071 47.4454 77.4486 49.3366 77.112L47.6661 67.7247C48.032 67.6596 48.1549 67.7952 47.5962 67.5968C46.9367 67.3626 46.0478 66.9384 44.3958 66.1357L40.2288 74.7118ZM36.8716 66.1377C35.2196 66.9404 34.3307 67.3646 33.6712 67.5988C33.1125 67.7972 33.2353 67.6616 33.6013 67.7267L31.9308 77.114C33.822 77.4506 35.4848 77.0729 36.862 76.5838C38.1384 76.1306 39.5814 75.4217 41.0386 74.7137L36.8716 66.1377ZM33.6013 67.7267L33.6013 67.7267L30.3543 76.6916C30.8668 76.8772 31.3942 77.0185 31.9308 77.114L33.6013 67.7267ZM33.6013 67.7267C33.9507 67.8532 33.9893 68.0322 33.6047 67.581C33.1506 67.0484 32.5929 66.2366 31.5636 64.7154L23.6669 70.059C24.5748 71.4007 25.4701 72.7361 26.3488 73.7668C27.297 74.879 28.5482 76.0374 30.3543 76.6916L33.6013 67.7267ZM15.2888 67.9883C16.7584 69.2253 18.3872 69.7297 19.8245 69.9948C21.1565 70.2404 22.7606 70.3481 24.3765 70.4635L25.0559 60.9529C23.2238 60.8221 22.2419 60.745 21.5536 60.6181C20.9706 60.5105 21.1448 60.4545 21.4292 60.6939L15.2888 67.9883ZM14.1347 66.8342C14.4857 67.2512 14.8719 67.6373 15.2888 67.9883L21.4292 60.6939L21.4292 60.6939L14.1347 66.8342ZM11.6595 57.7465C11.775 59.3624 11.8826 60.9666 12.1283 62.2986C12.3933 63.7358 12.8977 65.3647 14.1348 66.8342L21.4292 60.6939C21.6685 60.9782 21.6125 61.1525 21.505 60.5694C21.378 59.8811 21.301 58.8992 21.1701 57.0672L11.6595 57.7465ZM5.43763 51.7669C6.09178 53.5731 7.25022 54.8243 8.36238 55.7724C9.39312 56.6512 10.7285 57.5465 12.0702 58.4544L17.4138 50.5577C15.8926 49.5283 15.0809 48.9706 14.5482 48.5166C14.0971 48.1319 14.276 48.1705 14.4025 48.52L5.43763 51.7669ZM5.01522 50.1905C5.11071 50.7271 5.25203 51.2545 5.43764 51.767L14.4025 48.52L14.4025 48.52L5.01522 50.1905ZM7.41549 41.0827C6.70748 42.5398 5.99866 43.9829 5.54538 45.2592C5.0563 46.6364 4.67867 48.2993 5.01522 50.1905L14.4025 48.52C14.4677 48.8859 14.332 49.0088 14.5304 48.4501C14.7646 47.7905 15.1889 46.9017 15.9916 45.2496L7.41549 41.0827ZM15.9856 37.7335C15.1829 36.0814 14.7587 35.1926 14.5244 34.533C14.326 33.9743 14.4617 34.0972 14.3966 34.4631L5.00923 32.7926C4.67268 34.6838 5.05031 36.3467 5.53939 37.7239C5.99267 39.0002 6.70149 40.4433 7.4095 41.9004L15.9856 37.7335ZM14.3966 34.4631H14.3966L5.43165 31.2162C5.24604 31.7286 5.10472 32.256 5.00923 32.7926L14.3966 34.4631ZM14.3966 34.4631C14.27 34.8126 14.0911 34.8512 14.5423 34.4665C15.0749 34.0125 15.8867 33.4548 17.4078 32.4254L12.0642 24.5287C10.7225 25.4366 9.38713 26.3319 8.35639 27.2107C7.24424 28.1588 6.0858 29.41 5.43165 31.2161L14.3966 34.4631ZM14.1348 16.1441C12.8977 17.6136 12.3933 19.2425 12.1283 20.6797C11.8826 22.0117 11.775 23.6159 11.6595 25.2318L21.1701 25.9111C21.301 24.0791 21.378 23.0972 21.505 22.4089C21.6125 21.8258 21.6685 22.0001 21.4292 22.2844L14.1348 16.1441ZM15.2888 14.99C14.8719 15.341 14.4858 15.7271 14.1347 16.1441L21.4292 22.2844L21.4292 22.2844L15.2888 14.99ZM24.3765 12.5148C22.7606 12.6302 21.1565 12.7379 19.8245 12.9835C18.3872 13.2486 16.7584 13.7529 15.2888 14.99L21.4292 22.2844C21.1448 22.5238 20.9706 22.4677 21.5536 22.3602C22.2419 22.2333 23.2238 22.1562 25.0559 22.0254L24.3765 12.5148ZM25.0559 22.0254C27.6785 21.838 30.087 20.4587 31.5696 18.2677L23.6728 12.9241C23.8385 12.6792 24.0977 12.5347 24.3765 12.5148L25.0559 22.0254ZM17.4078 32.4254C19.5912 30.948 20.9818 28.5472 21.1701 25.9111L11.6595 25.2318C11.6801 24.9437 11.8305 24.6869 12.0642 24.5287L17.4078 32.4254ZM15.9916 45.2496C17.1506 42.8642 17.1285 40.0857 15.9856 37.7335L7.4095 41.9004C7.29026 41.655 7.28012 41.3613 7.41549 41.0827L15.9916 45.2496ZM21.1701 57.0672C20.9826 54.4426 19.6018 52.0382 17.4138 50.5577L12.0702 58.4544C11.827 58.2898 11.6797 58.029 11.6595 57.7465L21.1701 57.0672ZM31.5636 64.7154C30.0947 62.5446 27.6981 61.1417 25.0559 60.9529L24.3765 70.4635C24.0734 70.4418 23.8215 70.2876 23.6669 70.059L31.5636 64.7154ZM44.3958 66.1357C42.0163 64.9795 39.2401 64.9869 36.8716 66.1377L41.0386 74.7137C40.7871 74.8359 40.4912 74.8392 40.2288 74.7118L44.3958 66.1357ZM56.2119 60.9529C53.5743 61.1413 51.1767 62.5368 49.7038 64.7134L57.6005 70.057C57.4432 70.2895 57.1874 70.4423 56.8912 70.4635L56.2119 60.9529ZM63.8535 50.5597C61.6674 52.039 60.2853 54.4409 60.0977 57.0672L69.6082 57.7465C69.5879 58.0311 69.439 58.2927 69.1971 58.4564L63.8535 50.5597ZM65.2818 37.7315C64.1383 40.085 64.1162 42.865 65.2758 45.2516L73.8519 41.0847C73.9866 41.362 73.9765 41.6543 73.8579 41.8985L65.2818 37.7315ZM60.0977 25.9111C60.286 28.5481 61.6788 30.9478 63.8595 32.4235L69.2031 24.5267C69.4362 24.6844 69.5874 24.9406 69.6082 25.2318L60.0977 25.9111ZM49.6978 18.2697C51.1828 20.4642 53.5968 21.8386 56.2119 22.0254L56.8913 12.5148C57.1658 12.5344 57.4246 12.675 57.5945 12.9261L49.6978 18.2697ZM36.8776 16.8454C39.2423 17.9944 42.0141 18.0017 44.3898 16.8474L40.2228 8.27134C40.489 8.142 40.7894 8.14536 41.0446 8.26937L36.8776 16.8454Z" fill="black" mask="url(#path-2-inside-1_9022_60549)"/>
</g>
<path d="M14.3191 21.6417C14.5106 18.9599 14.6064 17.619 15.3824 16.6972C15.5189 16.535 15.6691 16.3849 15.8312 16.2484C16.753 15.4724 18.0939 15.3766 20.7757 15.1851L36.4285 14.067C37.358 14.0006 37.8228 13.9674 38.2883 13.9634C38.3729 13.9627 38.4575 13.9627 38.5421 13.9634C39.0076 13.9674 39.4723 14.0006 40.4018 14.067L56.0546 15.1851C58.7364 15.3766 60.0773 15.4724 60.9991 16.2484C61.1613 16.3849 61.3114 16.535 61.4479 16.6972C62.2239 17.619 62.3197 18.9599 62.5112 21.6417L63.7357 38.7845C63.7523 39.0169 63.7606 39.133 63.7616 39.2494C63.7618 39.2706 63.7618 39.2917 63.7616 39.3129C63.7606 39.4292 63.7523 39.5454 63.7357 39.7778L62.5112 56.9206C62.3197 59.6024 62.2239 60.9433 61.4479 61.8651C61.3114 62.0272 61.1613 62.1774 60.9991 62.3139C60.0773 63.0899 58.7364 63.1857 56.0546 63.3772L38.9118 64.6017C38.6795 64.6183 38.5633 64.6266 38.4469 64.6276C38.4257 64.6278 38.4046 64.6278 38.3834 64.6276C38.2671 64.6266 38.1509 64.6183 37.9185 64.6017L20.7757 63.3772C18.0939 63.1857 16.753 63.0899 15.8312 62.3139C15.6691 62.1774 15.5189 62.0272 15.3824 61.8651C14.6064 60.9433 14.5106 59.6024 14.3191 56.9206L13.0946 39.7778C13.078 39.5454 13.0697 39.4292 13.0687 39.3129C13.0685 39.2917 13.0685 39.2706 13.0687 39.2494C13.0697 39.133 13.078 39.0169 13.0946 38.7845L14.3191 21.6417Z" fill="url(#paint0_linear_9022_60549)"/>
<path d="M26.3673 11.957C27.8741 9.73032 28.6275 8.61697 29.7604 8.20663C29.9597 8.13445 30.1648 8.07949 30.3735 8.04236C31.5598 7.83125 32.7689 8.41874 35.1872 9.59374L49.302 16.4519C50.1401 16.8591 50.5592 17.0628 50.9643 17.292C51.038 17.3337 51.1112 17.376 51.1842 17.419C51.5853 17.6552 51.9712 17.9163 52.743 18.4385L65.7396 27.2332C67.9664 28.74 69.0797 29.4934 69.49 30.6263C69.5622 30.8256 69.6172 31.0307 69.6543 31.2394C69.8654 32.4257 69.2779 33.6348 68.1029 36.0531L60.592 51.5114C60.4902 51.721 60.4393 51.8258 60.3819 51.927C60.3715 51.9454 60.3609 51.9638 60.3502 51.982C60.2911 52.0823 60.2259 52.1787 60.0953 52.3717L50.4635 66.6055C48.9567 68.8322 48.2033 69.9456 47.0704 70.3559C46.8711 70.4281 46.666 70.4831 46.4573 70.5202C45.271 70.7313 44.0618 70.1438 41.6436 68.9688L26.1852 61.4579C25.9757 61.3561 25.8709 61.3051 25.7696 61.2478C25.7512 61.2374 25.7329 61.2268 25.7147 61.2161C25.6144 61.157 25.5179 61.0918 25.325 60.9612L11.0911 51.3294C8.86443 49.8226 7.75107 49.0692 7.34074 47.9363C7.26856 47.737 7.2136 47.5319 7.17646 47.3232C6.96535 46.1369 7.55285 44.9277 8.72785 42.5095L16.2388 27.0511C16.3406 26.8416 16.3915 26.7368 16.4489 26.6355C16.4593 26.6171 16.4698 26.5988 16.4806 26.5806C16.5396 26.4803 16.6049 26.3838 16.7355 26.1909L26.3673 11.957Z" fill="url(#paint1_linear_9022_60549)"/>
<path d="M8.7246 36.0545C7.5496 33.6363 6.96211 32.4271 7.17321 31.2408C7.21035 31.0321 7.26531 30.827 7.33749 30.6277C7.74782 29.4948 8.86118 28.7414 11.0879 27.2346L24.0846 18.44C24.8564 17.9177 25.2422 17.6566 25.6434 17.4204C25.7163 17.3775 25.7896 17.3352 25.8632 17.2935C26.2683 17.0642 26.6874 16.8606 27.5256 16.4533L41.6403 9.59518C44.0586 8.42018 45.2677 7.83269 46.454 8.04379C46.6627 8.08093 46.8678 8.13589 47.0671 8.20807C48.2001 8.6184 48.9534 9.73176 50.4602 11.9585L60.0921 26.1923C60.2226 26.3853 60.2879 26.4817 60.347 26.582C60.3577 26.6002 60.3683 26.6186 60.3787 26.637C60.436 26.7383 60.4869 26.843 60.5887 27.0526L68.0997 42.5109C69.2747 44.9292 69.8622 46.1383 69.6511 47.3246C69.6139 47.5333 69.559 47.7384 69.4868 47.9377C69.0765 49.0706 67.9631 49.824 65.7364 51.3308L51.5025 60.9626C51.3096 61.0932 51.2131 61.1585 51.1128 61.2175C51.0946 61.2283 51.0763 61.2388 51.0579 61.2493C50.9566 61.3066 50.8518 61.3575 50.6423 61.4593L35.184 68.9703C32.7657 70.1453 31.5566 70.7328 30.3702 70.5216C30.1616 70.4845 29.9565 70.4296 29.7572 70.3574C28.6242 69.947 27.8708 68.8337 26.3641 66.607L16.7322 52.3731C16.6017 52.1802 16.5364 52.0837 16.4773 51.9834C16.4666 51.9652 16.456 51.9469 16.4456 51.9285C16.3883 51.8272 16.3374 51.7224 16.2356 51.5129L8.7246 36.0545Z" fill="url(#paint2_linear_9022_60549)"/>
<g filter="url(#filter1_d_9022_60549)">
<path d="M23.9473 40.8093L33.5559 50.1715L54.3745 29.8867" stroke="white" stroke-width="7.1511" stroke-linecap="round" stroke-linejoin="round"/>
</g>
<defs>
<filter id="filter0_f_9022_60549" x="0.113633" y="0.973496" width="81.0403" height="81.0362" filterUnits="userSpaceOnUse" color-interpolation-filters="sRGB">
<feFlood flood-opacity="0" result="BackgroundImageFix"/>
<feBlend mode="normal" in="SourceGraphic" in2="BackgroundImageFix" result="shape"/>
<feGaussianBlur stdDeviation="4.7674" result="effect1_foregroundBlur_9022_60549"/>
</filter>
<filter id="filter1_d_9022_60549" x="20.3711" y="26.3113" width="39.9618" height="29.8195" filterUnits="userSpaceOnUse" color-interpolation-filters="sRGB">
<feFlood flood-opacity="0" result="BackgroundImageFix"/>
<feColorMatrix in="SourceAlpha" type="matrix" values="0 0 0 0 0 0 0 0 0 0 0 0 0 0 0 0 0 0 127 0" result="hardAlpha"/>
<feOffset dx="1.19185" dy="1.19185"/>
<feGaussianBlur stdDeviation="0.595925"/>
<feColorMatrix type="matrix" values="0 0 0 0 0.0131076 0 0 0 0 0.349483 0 0 0 0 0.629167 0 0 0 0.15 0"/>
<feBlend mode="normal" in2="BackgroundImageFix" result="effect1_dropShadow_9022_60549"/>
<feBlend mode="normal" in="SourceGraphic" in2="effect1_dropShadow_9022_60549" result="shape"/>
</filter>
<linearGradient id="paint0_linear_9022_60549" x1="6.54787" y1="17.4501" x2="68.6565" y2="64.7268" gradientUnits="userSpaceOnUse">
<stop stop-color="#006BCC"/>
<stop offset="1" stop-color="#008FE4"/>
</linearGradient>
<linearGradient id="paint1_linear_9022_60549" x1="6.54787" y1="17.4501" x2="68.6565" y2="64.7268" gradientUnits="userSpaceOnUse">
<stop stop-color="#006BCC"/>
<stop offset="1" stop-color="#008FE4"/>
</linearGradient>
<linearGradient id="paint2_linear_9022_60549" x1="6.54787" y1="17.4501" x2="68.6565" y2="64.7268" gradientUnits="userSpaceOnUse">
<stop stop-color="#006BCC"/>
<stop offset="1" stop-color="#008FE4"/>
</linearGradient>
</defs>
</svg>
